Coordinates
version=1
nRows=6
nColumns=34
inDegrees=yes

Units are S.I. units (second, meters, Newtons, ...)
If the header above contains a line with 'inDegrees', this indicates whether rotational values are in degrees (yes) or radians (no).

endheader
time	pelvis_tilt	pelvis_list	pelvis_rotation	pelvis_tx	pelvis_ty	pelvis_tz	hip_flexion_r	hip_adduction_r	hip_rotation_r	knee_angle_r	ankle_angle_r	subtalar_angle_r	mtp_angle_r	hip_flexion_l	hip_adduction_l	hip_rotation_l	knee_angle_l	ankle_angle_l	subtalar_angle_l	mtp_angle_l	lumbar_extension	lumbar_bending	lumbar_rotation	arm_flex_r	arm_add_r	arm_rot_r	elbow_flex_r	pro_sup_r	arm_flex_l	arm_add_l	arm_rot_l	elbow_flex_l	pro_sup_l
      0.00000000	     -3.07172357	     -1.85965680	     -1.01084943	      1.67014846	      0.84803977	     -0.02116422	      4.24417727	     -0.98884019	     -6.10368249	      7.63145219	      4.37596150	    -12.14455538	      0.00000000	      2.31894500	     -6.54181294	     -3.37702131	      6.97811623	     10.91751260	     -2.51874564	      0.00000000	     -5.99294618	      2.38417516	     -1.67092819	      8.40131499	     -9.35047075	     36.57092589	     87.11369339	     94.29406508	      4.51228909	     -6.14585138	     23.62847898	     75.94591452	     92.06351167
      0.01666670	     -4.34140707	     -1.83626069	     -1.01668398	      1.67173206	      0.84662386	     -0.02133923	      5.65336933	     -0.53686030	     -5.03016755	      7.83546065	      7.18144541	    -11.72003179	      0.00000000	      4.21139658	     -6.00815983	     -3.04617272	      7.26155005	     11.34343115	     -2.08130654	      0.00000000	     -4.03790403	      2.71466680	     -1.70386062	      7.32904029	     -9.17376187	     34.96576894	     86.59344040	     93.91554677	      3.56052252	     -6.45803276	     22.60535628	     76.33340098	     90.95094996
      0.03333330	     -4.42376451	     -1.20342489	     -1.14460235	      1.67161165	      0.84651892	     -0.02039309	      5.38049718	     -1.18289017	     -5.39496377	      6.95629763	      7.47263763	    -11.03421650	      0.00000000	      4.18210292	     -5.45416258	     -3.63158986	      7.04123747	     11.08062197	     -1.88411915	      0.00000000	     -3.63334495	      1.90351668	     -1.24942368	      7.32390356	     -8.98418117	     34.73889983	     85.59089555	     93.89245748	      4.28664315	     -6.96260719	     22.46731189	     75.51740560	     89.99051143
      0.05000000	     -4.17286142	     -0.84272138	     -1.05265099	      1.67174291	      0.84766642	     -0.01990599	      4.78666820	     -1.60651406	     -5.43107003	      6.35081476	      7.52942504	    -10.80710755	      0.00000000	      3.44516701	     -5.05621630	     -3.55037079	      6.32143838	     10.79062754	     -2.22241056	      0.00000000	     -3.71451961	      1.34770709	     -0.84421986	      7.14118065	     -9.14451716	     35.11297398	     85.44032954	     93.95833877	      4.91247227	     -7.16165460	     22.62297903	     75.23790580	     89.62501671
      0.06666670	     -3.78149422	     -0.75722365	     -0.96556537	      1.67198304	      0.84850466	     -0.01951261	      4.01755353	     -1.62181444	     -5.36842446	      5.73619546	      7.53771498	    -10.65831251	      0.00000000	      2.76215562	     -4.94215439	     -3.24939127	      5.87113322	     10.44193703	     -2.71113874	      0.00000000	     -4.07569370	      1.23679276	     -0.44743174	      7.07102753	     -9.39597258	     35.93635765	     86.03260748	     94.07440773	      5.69417184	     -7.40337340	     23.57677090	     74.98410652	     89.30435749
      0.08333330	     -3.65791056	     -0.63456126	     -0.81659043	      1.67229869	      0.84934024	     -0.01922554	      3.61995819	     -1.67059249	     -5.28953182	      5.29433020	      7.51444883	    -10.70005044	      0.00000000	      2.51395314	     -4.79255038	     -3.01251310	      5.64807334	     10.28550916	     -2.78850672	      0.00000000	     -3.94375141	      1.01332786	     -0.29147888	      6.96342848	     -9.46952945	     36.32311346	     86.41175504	     94.10168815	      6.02921214	     -7.41371527	     24.02328382	     75.07030516	     89.25106691
